<svg width="98" height="98" viewBox="0 0 98 98" fill="none" xmlns="http://www.w3.org/2000/svg">
<g clip-path="url(#clip0_1428_4)">
<path d="M65.1236 36.7777C65.3945 35.2791 65.3131 33.7174 64.8886 32.2729C64.4641 30.8285 63.7139 29.5603 62.7246 28.6147C61.7353 27.6692 60.5473 27.0848 59.2978 26.9292C58.0483 26.7736 56.7883 27.0531 55.6633 27.7354C55.2436 26.0743 54.3995 24.6212 53.2548 23.589C52.11 22.5569 50.7247 22 49.3021 22C47.8794 22 46.4942 22.5569 45.3494 23.589C44.2046 24.6212 43.3605 26.0743 42.9408 27.7354C41.8158 27.0531 40.5558 26.7736 39.3063 26.9292C38.0568 27.0848 36.8688 27.6692 35.8795 28.6147C34.8903 29.5603 34.1401 30.8285 33.7156 32.2729C33.2911 33.7174 33.2096 35.2791 33.4806 36.7777C31.8435 37.137 30.3758 38.232 29.3664 39.8473C28.3569 41.4626 27.8788 43.4811 28.0262 45.5055C28.1736 47.5299 28.9357 49.4136 30.1626 50.7858C31.3896 52.158 32.9924 52.9194 34.6556 52.9199H34.7888C35.1419 55.0344 36.168 56.8908 37.6412 58.0808C39.1145 59.2708 40.9142 59.6969 42.6446 59.2654C44.3749 58.8339 45.8942 57.5801 46.868 55.7798C47.8418 53.9795 48.1906 51.7803 47.8374 49.6658H49.4352C49.1028 51.7849 49.4729 53.9784 50.4641 55.764C51.4553 57.5496 52.9863 58.7809 54.7204 59.1871C56.4545 59.5932 58.2497 59.141 59.7109 57.9298C61.1721 56.7187 62.1798 54.8478 62.5122 52.7287C63.3787 52.9687 64.2758 52.9943 65.1505 52.804C66.0253 52.6137 66.86 52.2114 67.6055 51.6207C68.351 51.0301 68.9922 50.263 69.4914 49.3648C69.9905 48.4666 70.3374 47.4554 70.5117 46.3908C70.6861 45.3262 70.6842 44.2297 70.5063 43.1659C70.3284 42.1022 69.9781 41.0928 69.4759 40.1971C68.9738 39.3014 68.33 38.5376 67.5825 37.9506C66.835 37.3637 65.9989 36.9656 65.1236 36.7797V36.7777Z" fill="white"/>
<path d="M44.9622 76.3791H53.6789L52.4337 44.3638H46.2075L44.9622 76.3791Z" fill="white"/>
</g>
<rect x="1.5" y="1.5" width="95" height="95" rx="47.5" stroke="white" stroke-width="3"/>
<defs>
<clipPath id="clip0_1428_4">
<rect width="42.6411" height="54.3791" fill="white" transform="translate(28 22)"/>
</clipPath>
</defs>
</svg>
