<svg width="46" height="46" viewBox="0 0 46 46" fill="none" xmlns="http://www.w3.org/2000/svg">
<rect width="46" height="46" rx="23" fill="white"/>
<g clip-path="url(#clip0_1428_3)">
<path d="M30.7482 17.0656C30.8778 16.3491 30.8388 15.6024 30.6359 14.9118C30.4329 14.2211 30.0743 13.6148 29.6013 13.1627C29.1283 12.7106 28.5604 12.4312 27.963 12.3568C27.3657 12.2824 26.7633 12.416 26.2254 12.7422C26.0248 11.948 25.6212 11.2533 25.0739 10.7598C24.5266 10.2663 23.8644 10 23.1842 10C22.504 10 21.8418 10.2663 21.2945 10.7598C20.7472 11.2533 20.3436 11.948 20.143 12.7422C19.6051 12.416 19.0027 12.2824 18.4054 12.3568C17.808 12.4312 17.24 12.7106 16.7671 13.1627C16.2941 13.6148 15.9355 14.2211 15.7325 14.9118C15.5296 15.6024 15.4906 16.3491 15.6202 17.0656C14.8375 17.2374 14.1359 17.7609 13.6532 18.5332C13.1706 19.3056 12.9421 20.2707 13.0125 21.2386C13.083 22.2065 13.4473 23.1071 14.0339 23.7632C14.6205 24.4193 15.3868 24.7833 16.1819 24.7836H16.2456C16.4144 25.7946 16.905 26.6822 17.6093 27.2511C18.3137 27.8201 19.1741 28.0238 20.0014 27.8175C20.8286 27.6112 21.5549 27.0117 22.0205 26.151C22.4861 25.2902 22.6528 24.2387 22.484 23.2277H23.2479C23.0889 24.2409 23.2659 25.2897 23.7397 26.1434C24.2136 26.9972 24.9456 27.5859 25.7746 27.7801C26.6037 27.9743 27.4619 27.758 28.1605 27.179C28.8591 26.5999 29.3408 25.7053 29.4997 24.6922C29.914 24.8069 30.3429 24.8192 30.7611 24.7282C31.1793 24.6372 31.5784 24.4448 31.9348 24.1624C32.2912 23.88 32.5978 23.5133 32.8364 23.0838C33.075 22.6544 33.2409 22.1709 33.3242 21.6618C33.4076 21.1528 33.4067 20.6286 33.3216 20.12C33.2366 19.6114 33.0691 19.1287 32.829 18.7005C32.589 18.2722 32.2812 17.907 31.9238 17.6264C31.5664 17.3458 31.1667 17.1554 30.7482 17.0665V17.0656Z" fill="#2A9D8F"/>
<path d="M21.1094 36H25.2771L24.6817 20.6926H21.7048L21.1094 36Z" fill="#2A9D8F"/>
</g>
<defs>
<clipPath id="clip0_1428_3">
<rect width="20.3861" height="26" fill="white" transform="translate(13 10)"/>
</clipPath>
</defs>
</svg>
